<?xml version="1.0" encoding="utf-8"?>
<!-- Generator: Adobe Illustrator 23.0.3, SVG Export Plug-In . SVG Version: 6.00 Build 0)  -->
<svg version="1.1" id="Layer_1" focusable="false" xmlns="http://www.w3.org/2000/svg" xmlns:xlink="http://www.w3.org/1999/xlink"
	 x="0px" y="0px" viewBox="0 0 61 61" style="enable-background:new 0 0 61 61;" xml:space="preserve">
<style type="text/css">
	.st0{fill:#DD3919;}
	.st1{fill:#FFFFFF;}
</style>
<g>
	<circle class="st0" cx="30.5" cy="30.5" r="30.5"/>
	<path class="st1" d="M45.6,24v4.3h2.2v4.3h-2.2V37H13.3V24H45.6 M46.7,19.7H12.2c-1.8,0-3.2,1.4-3.2,3.2V38c0,1.8,1.4,3.2,3.2,3.2
		h34.5c1.8,0,3.2-1.4,3.2-3.2V37h0.5c0.9,0,1.6-0.7,1.6-1.6v-9.7c0-0.9-0.7-1.6-1.6-1.6h-0.5V23C49.9,21.2,48.4,19.7,46.7,19.7z"/>
</g>
</svg>
